<?xml version="1.0" encoding="UTF-8"?><svg id="Layer_2" xmlns="http://www.w3.org/2000/svg" viewBox="0 0 108.59 108.59"><g id="_4"><path d="M108.45,18.25c-8.93,14.03-23.16,24.35-39.87,28.15-3.84,.87-7.26-2.55-6.39-6.39,3.8-16.71,14.12-30.94,28.15-39.87v-.14H18.25c14.16,8.93,24.59,23.25,28.39,40.07,.87,3.84-2.53,7.25-6.37,6.4C23.45,42.71,9.12,32.36,.14,18.25h-.14V90.34c8.97-14.24,23.39-24.69,40.33-28.46,3.83-.85,7.23,2.54,6.38,6.38-3.76,16.94-14.22,31.36-28.46,40.33H90.34v-.14c-14.1-8.97-24.46-23.31-28.21-40.13-.86-3.84,2.56-7.24,6.4-6.37,16.83,3.81,31.14,14.23,40.07,28.39V18.25h-.14Z"/></g></svg>