<?xml version="1.0" encoding="UTF-8"?><svg id="Layer_2" xmlns="http://www.w3.org/2000/svg" viewBox="0 0 147.07 39.45"><g id="_8"><g><path d="M104.26,8.71c-1.27-2.21-4.46-2.21-5.73,0l-14.88,25.77c-1.27,2.21,.32,4.96,2.87,4.96h29.76c2.55,0,4.14-2.76,2.87-4.96l-14.88-25.77Z"/><path d="M88.8,0h-29.76c-2.55,0-4.14,2.76-2.87,4.96l14.88,25.77c1.27,2.21,4.46,2.21,5.73,0l14.88-25.77c1.27-2.21-.32-4.96-2.87-4.96Z"/><path d="M143.75,0h-29.76c-2.55,0-4.14,2.76-2.87,4.96l14.88,25.77c1.27,2.21,4.46,2.21,5.73,0l14.88-25.77c1.27-2.21-.32-4.96-2.87-4.96Z"/><path d="M33.07,0H3.31C.77,0-.83,2.76,.45,4.96L15.33,30.74c1.27,2.21,4.46,2.21,5.73,0L35.94,4.96c1.27-2.21-.32-4.96-2.87-4.96Z"/><path d="M49.3,8.71c-1.27-2.21-4.46-2.21-5.73,0l-14.88,25.77c-1.27,2.21,.32,4.96,2.87,4.96h29.76c2.55,0,4.14-2.76,2.87-4.96l-14.88-25.77Z"/></g></g></svg>