<?xml version="1.0" encoding="UTF-8"?><svg id="Layer_2" xmlns="http://www.w3.org/2000/svg" viewBox="0 0 286.37 207.78"><defs><style>.cls-1{stroke-width:0px;}</style></defs><g id="Elements"><g id="_13"><path class="cls-1" d="m166.34,91.88c1.31,1.31,3.42,1.31,4.73,0l43.53-43.54c2.15-2.15,5.06-3.35,8.09-3.35h29.28c3.28,0,6.43-1.29,8.77-3.59l22.18-21.79c7.31-7.18,2.22-19.61-8.02-19.61h-46.81c-3.04,0-5.95,1.21-8.09,3.35l-63,63c-4.47,4.47-4.47,11.72,0,16.19l9.34,9.34Z"/><path class="cls-1" d="m66.38,3.35C64.23,1.21,61.32,0,58.28,0H11.47c-10.25,0-15.33,12.43-8.02,19.61l22.18,21.79c2.34,2.3,5.49,3.59,8.77,3.59h29.28c3.04,0,5.95,1.21,8.09,3.35l43.53,43.54c1.31,1.31,3.42,1.31,4.73,0l9.34-9.34c4.47-4.47,4.47-11.72,0-16.19L66.38,3.35Z"/><path class="cls-1" d="m260.75,166.38c-2.34-2.3-5.49-3.59-8.77-3.59h-29.28c-3.04,0-5.95-1.21-8.09-3.35l-43.53-43.53c-1.31-1.31-3.42-1.31-4.73,0l-9.34,9.34c-4.47,4.47-4.47,11.72,0,16.19l63,63c2.15,2.15,5.06,3.35,8.09,3.35h46.81c10.25,0,15.33-12.43,8.02-19.61l-22.18-21.79Z"/><path class="cls-1" d="m120.04,115.91c-1.31-1.31-3.42-1.31-4.73,0l-43.53,43.53c-2.15,2.15-5.06,3.35-8.09,3.35h-29.28c-3.28,0-6.43,1.29-8.77,3.59l-22.18,21.79c-7.31,7.18-2.22,19.61,8.02,19.61h46.81c3.04,0,5.95-1.21,8.09-3.35l63-63c4.47-4.47,4.47-11.72,0-16.19l-9.34-9.34Z"/><circle class="cls-1" cx="220.01" cy="103.89" r="9.33"/><circle class="cls-1" cx="66.36" cy="103.89" r="9.33"/></g></g></svg>