<?xml version="1.0" encoding="UTF-8"?><svg id="Layer_2" xmlns="http://www.w3.org/2000/svg" viewBox="0 0 445.46 201.03"><defs><style>.cls-1{stroke-width:0px;}</style></defs><g id="Elements"><g id="_33"><rect class="cls-1" x="79.76" width="9.58" height="45.5"/><rect class="cls-1" x="51.03" width="9.58" height="45.5"/><polygon class="cls-1" points="43.84 67.05 34.27 67.05 34.27 76.62 34.27 86.2 34.27 112.54 43.84 112.54 43.84 86.2 61.49 86.2 61.49 76.62 43.84 76.62 43.84 67.05"/><rect class="cls-1" x="46.24" y="153.25" width="9.58" height="45.5"/><rect class="cls-1" x="70.18" y="107.75" width="9.58" height="45.5"/><rect class="cls-1" x="218.64" y="112.54" width="45.5" height="9.58"/><polygon class="cls-1" points="403.02 0 393.44 0 393.44 14.37 364.71 14.37 364.71 23.95 393.44 23.95 393.44 62.01 403.02 62.01 403.02 23.95 410.21 23.95 410.21 14.37 403.02 14.37 403.02 0"/><polygon class="cls-1" points="261.75 45.5 280.9 45.5 280.9 98.17 290.48 98.17 290.48 45.5 307.24 45.5 307.24 35.92 290.48 35.92 290.48 0 280.9 0 280.9 35.92 261.75 35.92 261.75 45.5"/><rect class="cls-1" x="130.05" width="9.58" height="98.17"/><rect class="cls-1" x="180.33" width="9.58" height="44.44"/><rect class="cls-1" x="230.62" y="53.74" width="9.58" height="44.44"/><rect class="cls-1" x="230.62" width="9.58" height="33.52"/><rect class="cls-1" x="331.19" width="9.58" height="62.26"/><rect class="cls-1" x="364.71" y="160.43" width="9.58" height="38.31"/><rect class="cls-1" x="89.34" y="45.5" width="9.58" height="153.25"/><polygon class="cls-1" points="149.2 98.17 139.62 98.17 139.62 165.22 122.86 165.22 122.86 174.8 139.62 174.8 139.62 198.74 149.2 198.74 149.2 174.8 168.36 174.8 168.36 165.22 149.2 165.22 149.2 98.17"/><rect class="cls-1" x="189.91" y="112.54" width="9.58" height="44.44"/><rect class="cls-1" x="180.33" y="74.23" width="9.58" height="38.31"/><rect class="cls-1" x="189.91" y="170.01" width="9.58" height="27.68"/><rect class="cls-1" x="240.19" y="151.91" width="9.58" height="46.83"/><polygon class="cls-1" points="300.06 121.02 290.48 121.02 290.48 179.59 278.51 179.59 278.51 189.17 290.48 189.17 290.48 198.74 300.06 198.74 300.06 189.17 309.64 189.17 309.64 179.59 300.06 179.59 300.06 121.02"/><polygon class="cls-1" points="350.34 100.57 340.76 100.57 340.76 112.54 319.21 112.54 319.21 122.12 340.76 122.12 340.76 198.49 350.34 198.49 350.34 122.12 381.47 122.12 381.47 112.54 350.34 112.54 350.34 100.57"/><rect class="cls-1" x="391.05" y="98.17" width="9.58" height="62.01"/><rect class="cls-1" x="109.65" y="79.95" width="11.42" height="11.42"/><rect class="cls-1" x="203.31" y="54.83" width="11.42" height="11.42"/><rect class="cls-1" x="262.71" y="139.35" width="11.42" height="11.42"/><rect class="cls-1" y="86.81" width="11.42" height="11.42"/><rect class="cls-1" y="121.07" width="11.42" height="11.42"/><rect class="cls-1" y="189.61" width="11.42" height="11.42"/><rect class="cls-1" width="11.42" height="11.42"/><rect class="cls-1" x="434.04" width="11.42" height="11.42"/><rect class="cls-1" x="434.04" y="50.26" width="11.42" height="11.42"/><rect class="cls-1" x="434.04" y="77.67" width="11.42" height="11.42"/><rect class="cls-1" x="434.04" y="121.07" width="11.42" height="11.42"/><rect class="cls-1" x="434.04" y="187.32" width="11.42" height="11.42"/><rect class="cls-1" x="363.22" y="70.82" width="11.42" height="11.42"/><rect class="cls-1" x="258.14" y="6.85" width="11.42" height="11.42"/><rect class="cls-1" x="390.64" y="187.32" width="11.42" height="11.42"/></g></g></svg>