<?xml version="1.0" encoding="UTF-8"?><svg id="Layer_2" xmlns="http://www.w3.org/2000/svg" viewBox="0 0 138.96 138.96"><g id="_1"><path d="M136.78,57.26c-.68-1.62-2.12-2.68-3.78-2.79h-.26c-.46,.07-.48,.07-.74-.02l-.22-.08h-.24c-1.89,.05-3.34,.95-4.61,1.75-.65,.4-1.26,.78-1.87,1.03l-.26,.1-.19,.2c-1.05,1.06-2.1,2.03-3.15,2.93,.32-.68,.63-1.36,.93-2.06v-.02c4.04-9.89,3.94-21.1-.26-30.76-2.39-5.4-5.46-10.79-11.64-13.68-2.93-1.35-5.91-.85-7.97,1.36l-.08,.1c-1.4,1.84-2.23,4.32-2.53,7.58v.07c-.05,1.03-.12,2.02-.2,2.99-.22-.6-.44-1.21-.68-1.81v-.02c-4.15-9.84-12.14-17.7-21.95-21.56-5.51-2.13-11.49-3.77-17.91-1.44-3.03,1.12-4.78,3.58-4.67,6.59v.13c.32,2.29,1.49,4.63,3.58,7.15l.05,.05c.7,.76,1.35,1.51,1.98,2.25-.58-.27-1.17-.54-1.76-.79h-.02c-9.89-4.04-21.1-3.94-30.76,.26-5.4,2.39-10.79,5.46-13.68,11.64-1.35,2.93-.85,5.91,1.36,7.97l.1,.08c1.84,1.4,4.32,2.23,7.58,2.53h.07c1.03,.05,2.02,.12,2.99,.2-.6,.22-1.21,.44-1.81,.68h-.02c-9.84,4.15-17.7,12.14-21.56,21.95-2.13,5.51-3.77,11.49-1.44,17.91,1.12,3.03,3.58,4.78,6.59,4.67h.13c2.29-.32,4.63-1.49,7.15-3.58l.05-.05c.74-.69,1.48-1.33,2.21-1.94-.31,.68-.64,1.35-.93,2.05v.03c-2.97,7.56-3.63,14.91-2.03,22.5,2.74,12.38,8.17,19.87,16.15,22.25,1.62,.67,3.39,.4,4.65-.71l.1-.09,.08-.1c.28-.37,.29-.38,.54-.5l.21-.1,.16-.17c1.3-1.37,1.69-3.03,2.03-4.5,.17-.74,.33-1.44,.6-2.05l.11-.25v-.27c0-1.46,.04-2.86,.14-4.21,.29,.79,.59,1.59,.91,2.38v.03c3.27,7.43,8,13.1,14.5,17.34,10.69,6.82,19.83,8.27,27.15,4.31,1.62-.68,2.68-2.12,2.79-3.78v-.26c-.07-.46-.07-.48,.02-.74l.08-.22v-.24c-.05-1.89-.95-3.34-1.75-4.61-.4-.65-.78-1.25-1.03-1.87l-.1-.26-.2-.19c-1.05-1.04-2.01-2.07-2.9-3.11,.77,.36,1.55,.73,2.35,1.07h.03c7.56,2.97,14.91,3.63,22.5,2.03,12.38-2.74,19.87-8.17,22.25-16.15,.67-1.62,.4-3.39-.71-4.65l-.09-.1-.1-.08c-.37-.28-.38-.29-.5-.54l-.1-.21-.17-.16c-1.37-1.3-3.03-1.69-4.5-2.03-.74-.17-1.44-.33-2.05-.6l-.25-.11h-.27c-1.46,0-2.86-.04-4.21-.14,.79-.29,1.58-.59,2.38-.91h.03c7.43-3.27,13.1-8,17.34-14.5,6.82-10.69,8.27-19.83,4.31-27.15ZM102.53,23.11c.25-2.7,.9-4.71,1.96-6.13,1.71-1.79,3.79-1.22,4.88-.72,3.19,1.49,6.65,4.02,10.34,12.35,3.92,9,4,19.46,.24,28.69-1,2.36-2.15,4.61-3.43,6.75-4.5,2.79-9.04,4.14-13.7,4.08-1.89-.03-3.61-.37-5.21-.93,.81-1.56,1.54-3.18,2.17-4.88,3.73-9.49,4.29-20.06,1.73-30.45,.55-2.68,.89-5.6,1.02-8.77Zm-57.39,42.91c-.8,1.13-1.53,2.23-2.2,3.31-.29-.11-.57-.22-.87-.32-.33-.11-.71-.21-1.07-.3-.31-.08-.64-.16-.86-.24l-.17-.05c-2.31-.46-4.67-.52-7.06-.2-2.49,.34-5.03,1.1-7.6,2.29,.9-1.18,1.84-2.33,2.85-3.43,3.96-4.29,8.26-7.65,12.75-9.97l.03-.02c2.55-1.4,5.22-2.49,8.25-3.34,.71,2.13,1.05,4.27,1.01,6.48-1.79,1.76-3.5,3.64-5.06,5.79Zm4.91-1.83c-.09,1.46-.19,2.89-.3,4.29-.12,1.55-.23,3.07-.31,4.58-1.24-1.03-2.59-1.9-4.06-2.65,.59-.93,1.21-1.88,1.9-2.85,.87-1.2,1.8-2.31,2.76-3.36Zm-.18-15.39c-.17-.28-.34-.56-.44-.78l-.09-.15c-1.31-1.96-2.93-3.67-4.85-5.13-1.99-1.52-4.32-2.77-6.96-3.75,8.21-1.19,16.39-.33,23.86,2.6,1.72,.65,3.36,1.39,4.95,2.23-1.02,2.09-2.32,3.9-3.96,5.49-2.51-.03-5.04,.1-7.68,.52-1.37,.23-2.66,.5-3.9,.79-.13-.28-.25-.56-.39-.84-.15-.31-.35-.65-.55-.97Zm29.11,1.39c-3.02-3.07-6.05-5.52-9.3-7.5,.08-.21,.16-.41,.23-.63,.11-.33,.21-.71,.3-1.07,.08-.31,.16-.64,.24-.86l.05-.17c.46-2.31,.52-4.67,.2-7.06-.34-2.48-1.1-5.01-2.27-7.57,6.64,4.96,11.83,11.35,15.03,18.71,.76,1.68,1.4,3.36,1.92,5.08-2.1,.72-4.21,1.08-6.39,1.08Zm7.07,1.48c.58,2.48,.93,5.06,1.06,7.81-1.36-1.48-2.68-3.07-4.03-4.67-.59-.7-1.17-1.4-1.76-2.09,1.6-.17,3.17-.52,4.73-1.05Zm-17.43-6.52c2.21,1.38,4.33,3,6.41,4.91-1.56-.09-3.1-.2-4.6-.31-1.55-.12-3.07-.23-4.58-.31,1.08-1.3,1.99-2.73,2.77-4.28Zm-13.5,7.28c1.46-.23,2.9-.36,4.33-.43-1.09,.97-2.18,1.91-3.24,2.82-1.18,1.01-2.33,2.01-3.46,3.02-.15-1.6-.48-3.18-.99-4.75,1.07-.24,2.19-.47,3.36-.67Zm-2.74,16.25c.18-2.34,.35-4.77,.43-7.3,1.64-1.55,3.35-3.03,5.12-4.55,1.78-1.53,3.62-3.12,5.47-4.86,2.25,.06,4.52,.23,6.84,.4,2.44,.18,4.96,.37,7.6,.44,.43,.45,.86,.91,1.29,1.39,.65,.76,1.29,1.53,1.93,2.29,1.96,2.34,3.94,4.7,6.09,6.81-.01,.72-.03,1.44-.07,2.19-.08,.99-.17,1.99-.26,2.99-.27,3.04-.54,6.12-.51,9.14-.52,.5-1.04,.99-1.6,1.49-.76,.65-1.52,1.29-2.29,1.93-2.34,1.96-4.7,3.94-6.81,6.09-.72-.01-1.44-.03-2.19-.07-.99-.08-1.99-.17-2.99-.26-2.95-.26-5.92-.52-8.85-.52-1.62-1.69-3.16-3.48-4.73-5.31-1.53-1.78-3.12-3.62-4.86-5.47,.06-2.25,.22-4.52,.4-6.84Zm35.06,17.32c-2.54,.6-5.19,.97-8.01,1.1,1.48-1.36,3.07-2.68,4.67-4.03,.78-.65,1.56-1.31,2.33-1.96l.02-.02,.02-.02c.17,1.68,.47,3.33,.96,4.93Zm-32.61-3.29c1.1,1.28,2.18,2.53,3.28,3.75-1.69,.15-3.35,.45-4.96,.92-.26-1.14-.5-2.32-.72-3.57-.23-1.46-.36-2.9-.43-4.33,.97,1.09,1.91,2.18,2.82,3.24Zm5.63,6.24c1.69,1.71,3.5,3.33,5.56,4.83,1.18,.83,2.32,1.59,3.44,2.28-.79,2.04-1.27,4.26-1.31,6.73-.04,3.63,.67,7.17,2.15,10.66-1.1-.85-2.17-1.74-3.21-2.68-4.29-3.96-7.65-8.26-9.97-12.75l-.02-.03c-1.37-2.5-2.44-5.11-3.28-8.05,2.11-.63,4.34-.92,6.65-.98Zm7.1,2.69c-1.14-.83-2.21-1.71-3.22-2.63,1.91,.09,3.87,.26,5.85,.44,1.01,.09,2.03,.18,3.03,.26h.06c-1.02,1.24-1.92,2.55-2.69,3.95-.99-.62-2-1.28-3.03-2.02Zm9.13-1.83c4.22,.01,8.04-.42,11.68-1.31,.87,1.92,2.07,3.76,3.72,5.47,2.54,2.6,5.54,4.59,9.06,6.02-1.38,.18-2.77,.31-4.17,.38-5.84,.23-11.24-.43-16.07-1.97h-.03c-2.73-.81-5.33-1.9-8.01-3.38,1-1.86,2.31-3.57,3.83-5.19Zm12.27-11.07c2.99-2.98,5.4-5.98,7.34-9.19,1.97,.74,4.12,1.19,6.49,1.23,3.62,.04,7.16-.67,10.64-2.14-4.94,6.54-11.27,11.64-18.55,14.81-1.62,.73-3.24,1.35-4.89,1.86-.65-2.09-.95-4.29-1.03-6.58Zm.03-3.85c.09-2.01,.27-4.07,.46-6.15,.09-1.01,.18-2.03,.26-3.03v-.06c1.31,1.07,2.69,2.02,4.17,2.81-1.37,2.23-2.98,4.35-4.88,6.44Zm10.93-37.37c1.19,8.21,.33,16.39-2.6,23.86-.62,1.66-1.33,3.24-2.14,4.77-1.94-1.02-3.7-2.37-5.38-3.93,.01-4.16-.4-7.94-1.27-11.54,.2-.09,.41-.18,.61-.28,.31-.15,.65-.35,.97-.55,.28-.17,.56-.34,.78-.44l.15-.09c1.96-1.31,3.67-2.93,5.13-4.85,1.52-1.99,2.77-4.32,3.75-6.96ZM60.07,13.3c-1.73-2.09-2.69-3.96-2.95-5.72-.05-2.48,1.82-3.54,2.94-3.96,3.31-1.2,7.54-1.86,16.04,1.42,9.14,3.6,16.59,10.93,20.46,20.12,.91,2.25,1.66,4.52,2.25,6.81-1.51,7.01-4.54,12-9.18,15.13-.29,.15-.59,.33-.89,.5-.28,.17-.56,.34-.78,.44-.05,.03-.11,.05-.16,.07-.54-1.74-1.19-3.44-1.96-5.14-4.07-9.35-11.15-17.22-20.31-22.75-1.51-2.28-3.33-4.59-5.48-6.92ZM23.11,36.38c-2.7-.25-4.71-.9-6.13-1.96-1.79-1.72-1.22-3.79-.72-4.88,1.49-3.19,4.02-6.65,12.35-10.34,9-3.92,19.46-4,28.69-.24,2.23,.95,4.37,2.03,6.4,3.22,3.89,6.02,5.28,11.69,4.21,17.19-.1,.31-.19,.65-.27,.98-.08,.31-.16,.64-.24,.86-.02,.06-.04,.11-.06,.16-1.61-.85-3.27-1.59-5.02-2.25-9.49-3.73-20.06-4.29-30.45-1.73-2.68-.55-5.6-.89-8.77-1.02Zm-9.81,42.46c-2.09,1.73-3.96,2.69-5.72,2.95-2.48,.05-3.54-1.82-3.96-2.94-1.2-3.31-1.86-7.54,1.42-16.04,3.6-9.13,10.93-16.59,20.12-20.46,2.25-.91,4.52-1.66,6.81-2.25,7.01,1.51,12,4.54,15.13,9.17,.15,.29,.33,.59,.5,.89,.17,.28,.34,.56,.44,.78,.06,.12,.11,.23,.16,.35-3.11,.9-5.86,2.02-8.52,3.48-4.77,2.47-9.3,6.01-13.47,10.53-1.04,1.14-2.02,2.32-2.94,3.53-1.11,1.45-2.12,2.98-3.07,4.55-2.28,1.51-4.57,3.32-6.89,5.46Zm24.72,1.28c-1.63,5.12-2.33,10.82-2.08,16.97,.07,1.54,.21,3.07,.42,4.58,.23,1.68,.54,3.35,.93,5.01-.65,3.03-.97,6.36-.97,10.01-.29,.74-.47,1.5-.64,2.24-.28,1.23-.53,2.3-1.24,3.12-.57,.32-.86,.66-1.15,1.03-.73,.57-1.6,.27-1.85,.16l-.15-.05c-7.03-2.07-11.87-8.9-14.39-20.29-1.48-7.05-.87-13.91,1.89-20.97,.99-2.36,2.1-4.57,3.35-6.68,6.04-3.91,11.73-5.31,17.23-4.24,.31,.1,.65,.19,.98,.27,.31,.08,.64,.16,.86,.24,.12,.04,.24,.09,.36,.13-1.56,2.83-2.71,5.58-3.56,8.48Zm.93,21.02c-.18-1.38-.31-2.77-.38-4.17-.23-5.84,.43-11.24,1.97-16.07v-.03c.82-2.8,1.94-5.45,3.48-8.19,2.01,1,3.76,2.28,5.3,3.86-.03,2.51,.1,5.04,.52,7.68,.24,1.42,.52,2.76,.82,4.04-2,.88-3.91,2.12-5.69,3.83-2.6,2.54-4.59,5.54-6.02,9.06Zm40.47,25.15c.32,.73,.73,1.39,1.13,2.03,.67,1.07,1.25,2,1.33,3.08-.18,.63-.14,1.07-.08,1.54-.12,.92-.94,1.32-1.2,1.42l-.14,.07c-6.43,3.51-14.69,2.1-24.52-4.17-6.04-3.94-10.45-9.23-13.49-16.17-1.02-2.5-1.83-4.98-2.45-7.47,1.21-5.19,3.46-9.36,6.81-12.63,1.41-1.36,2.94-2.37,4.54-3.12,.89,3.04,2,5.76,3.43,8.36,2.47,4.77,6.01,9.3,10.53,13.47,1.14,1.04,2.32,2.02,3.53,2.94,1.33,1.02,2.73,1.94,4.16,2.83,1.69,2.62,3.82,5.22,6.42,7.82Zm37.27-23.69c.74,.29,1.5,.47,2.24,.64,1.23,.28,2.3,.53,3.12,1.24,.32,.57,.66,.86,1.03,1.15,.57,.73,.27,1.6,.16,1.85l-.05,.15c-2.07,7.03-8.9,11.87-20.29,14.39-7.05,1.48-13.91,.87-20.97-1.89-2.49-1.04-4.81-2.23-7.02-3.55-2.81-4.52-4.17-9.07-4.12-13.75,.04-1.96,.4-3.75,1-5.41,2.78,1.52,5.49,2.65,8.34,3.49,5.12,1.63,10.82,2.33,16.97,2.08,1.54-.07,3.07-.21,4.58-.42,1.68-.23,3.35-.54,5.01-.93,3.03,.65,6.36,.97,10.01,.97Zm13.57-19.63c-3.94,6.04-9.23,10.45-16.17,13.49-2.5,1.02-4.98,1.83-7.47,2.45-5.19-1.21-9.36-3.46-12.63-6.81-1.31-1.36-2.29-2.82-3.03-4.35,1.68-.53,3.34-1.16,4.99-1.91,9.21-4.01,16.99-10.95,22.5-19.91,2.63-1.7,5.24-3.83,7.85-6.44,.73-.32,1.39-.73,2.03-1.13,1.07-.67,2-1.25,3.08-1.33,.63,.18,1.07,.14,1.54,.08,.92,.12,1.32,.94,1.42,1.2l.07,.14c3.51,6.43,2.1,14.69-4.17,24.52Z"/></g></svg>