<?xml version="1.0" encoding="UTF-8"?><svg id="Layer_2" xmlns="http://www.w3.org/2000/svg" viewBox="0 0 136.43 138.1"><g id="_0"><path d="M121.33,53.24c-6.88,0-12.67,4.6-14.5,10.89-.5,1.71-2.05,2.91-3.83,2.91h-15.32c-5.73,0-8.6-6.93-4.55-10.99l10.6-10.6c1.26-1.26,3.2-1.52,4.77-.66,5.74,3.16,13.09,2.31,17.95-2.55,6.09-6.09,5.89-16.09-.59-21.92-5.85-5.26-15-5.06-20.63,.43-4.99,4.86-5.88,12.3-2.68,18.1,.86,1.56,.6,3.5-.66,4.76l-11.37,11.37c-4.05,4.05-10.99,1.18-10.99-4.55v-16.99c0-1.78,1.19-3.34,2.9-3.83,6.39-1.85,11.03-7.79,10.9-14.81-.15-7.82-6.47-14.36-14.28-14.78-8.71-.46-15.92,6.47-15.92,15.08,0,6.88,4.6,12.67,10.89,14.5,1.71,.5,2.91,2.05,2.91,3.83v16.99c0,5.73-6.93,8.6-10.99,4.55l-11.37-11.37c-1.26-1.26-1.52-3.2-.66-4.76,3.19-5.79,2.3-13.23-2.68-18.1-5.63-5.49-14.78-5.69-20.63-.43-6.49,5.84-6.68,15.83-.59,21.92,4.86,4.86,12.21,5.71,17.95,2.55,1.56-.86,3.5-.61,4.77,.66l10.6,10.6c4.05,4.05,1.18,10.99-4.55,10.99h-15.3c-1.79,0-3.34-1.19-3.83-2.91-1.82-6.29-7.62-10.89-14.5-10.89C6.49,53.24-.44,60.45,.02,69.16c.41,7.81,6.95,14.13,14.77,14.28,7.02,.14,12.96-4.51,14.81-10.9,.49-1.71,2.05-2.9,3.83-2.9h16.72c5.73,0,8.6,6.93,4.55,10.99l-12.01,12.01c-1.26,1.26-3.2,1.52-4.77,.66-5.74-3.16-13.09-2.31-17.95,2.55-6.09,6.09-5.89,16.09,.59,21.92,5.85,5.26,15,5.06,20.63-.43,4.99-4.86,5.88-12.3,2.68-18.1-.86-1.56-.6-3.5,.66-4.76l11.37-11.37c4.05-4.05,10.99-1.18,10.99,4.55v16.99c0,1.79-1.19,3.34-2.91,3.83-6.29,1.82-10.89,7.62-10.89,14.5,0,8.61,7.21,15.54,15.92,15.08,7.81-.41,14.13-6.96,14.28-14.78,.14-7.02-4.51-12.96-10.9-14.81-1.71-.49-2.9-2.05-2.9-3.83v-16.99c0-5.73,6.93-8.6,10.99-4.55l11.37,11.37c1.26,1.26,1.52,3.2,.66,4.76-3.19,5.79-2.3,13.23,2.68,18.1,5.63,5.49,14.78,5.69,20.63,.43,6.49-5.84,6.68-15.83,.59-21.92-4.86-4.86-12.21-5.71-17.95-2.55-1.56,.86-3.5,.61-4.77-.66l-12.01-12.01c-4.05-4.05-1.18-10.99,4.55-10.99h16.74c1.78,0,3.34,1.19,3.83,2.9,1.85,6.39,7.79,11.04,14.81,10.9,7.82-.16,14.36-6.47,14.77-14.28,.46-8.71-6.47-15.92-15.08-15.92Z"/></g></svg>