<?xml version="1.0" encoding="UTF-8"?><svg id="Layer_2" xmlns="http://www.w3.org/2000/svg" viewBox="0 0 129.68 129.68"><g id="_3"><g><path d="M122.36,47.16c-8.27-8.27-20.88-9.53-30.48-3.81-1.74,1.04-3.38,2.31-4.88,3.81l-17.68,17.68,17.68,17.68c9.77,9.77,25.6,9.77,35.36,0,9.76-9.76,9.77-25.6,0-35.36Z"/><path d="M64.84,69.31l-17.68,17.68c-1.5,1.5-2.77,3.14-3.81,4.88-5.73,9.6-4.46,22.21,3.81,30.48,9.77,9.77,25.6,9.76,35.36,0,9.77-9.77,9.77-25.6,0-35.36l-17.68-17.68Z"/><path d="M64.84,60.37l17.68-17.68c1.5-1.5,2.77-3.14,3.81-4.88,5.73-9.6,4.46-22.21-3.81-30.48-9.77-9.77-25.6-9.76-35.36,0-9.77,9.77-9.77,25.6,0,35.36l17.68,17.68Z"/><path d="M60.37,64.84l-17.68-17.68c-9.77-9.77-25.6-9.77-35.36,0-9.76,9.76-9.77,25.6,0,35.36,8.27,8.27,20.88,9.53,30.48,3.81,1.74-1.04,3.38-2.31,4.88-3.81l17.68-17.68Z"/></g></g></svg>