<?xml version="1.0" encoding="UTF-8"?><svg id="Layer_2" xmlns="http://www.w3.org/2000/svg" viewBox="0 0 115.78 132.15"><g id="_4"><g><path d="M115.78,57.89c0-6.1-3.2-11.49-8.55-14.42l-19.54-10.69c-1.99-1.09-3.61-2.71-4.7-4.7l-10.69-19.54C69.38,3.2,63.99,0,57.89,0s-11.49,3.2-14.42,8.55l-10.69,19.54c-1.09,1.99-2.71,3.61-4.7,4.7l-19.54,10.69C3.2,46.4,0,51.79,0,57.89c0,2.97,.76,5.76,2.15,8.19-1.39,2.43-2.15,5.22-2.15,8.19,0,6.1,3.2,11.49,8.55,14.42l19.54,10.69c1.99,1.09,3.61,2.71,4.7,4.7l10.69,19.54c2.93,5.35,8.32,8.55,14.42,8.55s11.49-3.2,14.42-8.55l10.69-19.54c1.09-1.99,2.71-3.61,4.7-4.7l19.54-10.69c5.35-2.93,8.55-8.32,8.55-14.42,0-2.97-.76-5.76-2.15-8.19,1.39-2.43,2.15-5.22,2.15-8.19Zm-10.77,26.74l-19.54,10.69c-2.76,1.51-5.02,3.77-6.53,6.53l-10.69,19.54c-2.1,3.85-5.98,6.14-10.36,6.14s-8.26-2.3-10.36-6.14l-10.69-19.54c-1.51-2.76-3.77-5.02-6.53-6.53l-19.54-10.69c-3.85-2.1-6.14-5.98-6.14-10.36,0-1.48,.27-2.89,.76-4.2,.95,.85,2,1.61,3.17,2.25l16.84,9.21c3.75,2.05,6.82,5.12,8.87,8.87,4.8,8.77,13.63,14.01,23.63,14.01s18.83-5.24,23.63-14.01c2.05-3.75,5.12-6.82,8.87-8.87l16.84-9.21c1.16-.64,2.22-1.39,3.17-2.25,.49,1.31,.76,2.73,.76,4.2,0,4.38-2.3,8.26-6.14,10.36Zm-77.4-7.17l-16.84-9.21c-1.08-.59-2.04-1.33-2.86-2.17,.82-.84,1.78-1.58,2.86-2.17l16.84-9.21c4.53-2.48,8.23-6.18,10.71-10.71,3.97-7.27,11.29-11.6,19.57-11.6s15.6,4.34,19.57,11.6c2.48,4.53,6.18,8.23,10.71,10.71l16.84,9.21c1.08,.59,2.04,1.33,2.86,2.17-.82,.84-1.78,1.58-2.86,2.17l-16.84,9.21c-4.53,2.48-8.23,6.18-10.71,10.71-3.97,7.27-11.29,11.6-19.57,11.6s-15.6-4.34-19.57-11.6l-2.03,1.11,2.03-1.11c-2.48-4.53-6.18-8.23-10.71-10.71Zm82.78-15.37c-.95-.85-2-1.61-3.17-2.25l-16.84-9.21c-3.75-2.05-6.82-5.12-8.87-8.87h0c-4.8-8.77-13.63-14.01-23.63-14.01h0c-10,0-18.83,5.24-23.63,14.01-2.05,3.75-5.12,6.82-8.87,8.87l-16.84,9.21c-1.16,.64-2.22,1.39-3.17,2.25-.49-1.31-.76-2.73-.76-4.2,0-4.38,2.3-8.26,6.14-10.36l19.54-10.69c2.76-1.51,5.02-3.77,6.53-6.53l10.69-19.54c2.1-3.85,5.98-6.14,10.36-6.14s8.26,2.3,10.36,6.14l10.69,19.54c1.51,2.76,3.77,5.02,6.53,6.53l19.54,10.69c3.85,2.1,6.14,5.98,6.14,10.36,0,1.48-.27,2.89-.76,4.2Z"/><path d="M43.66,72.65c-.59,2.03-.03,4.22,1.46,5.72,1.5,1.5,3.69,2.06,5.72,1.46l6.72-1.97c.21-.06,.44-.06,.65,0l6.72,1.97c.54,.16,1.08,.23,1.63,.23,1.51,0,2.99-.59,4.09-1.7,1.5-1.5,2.06-3.69,1.46-5.72l-1.97-6.72c-.06-.21-.06-.44,0-.65l1.97-6.72c.59-2.03,.04-4.22-1.46-5.72-1.5-1.5-3.69-2.06-5.72-1.46l-6.72,1.97c-.21,.06-.44,.06-.65,0l-6.72-1.97c-2.03-.59-4.22-.03-5.72,1.46-1.5,1.5-2.06,3.69-1.46,5.72l1.97,6.72c.06,.21,.06,.44,0,.65l-1.97,6.72Zm6.41-8.67l-1.97-6.72c-.17-.6,.15-1,.29-1.15,.15-.15,.55-.47,1.15-.29l6.72,1.97c1.06,.31,2.19,.31,3.25,0l6.72-1.97c.6-.17,1,.15,1.15,.29s.47,.55,.29,1.15l-1.97,6.72c-.31,1.06-.31,2.19,0,3.25l1.97,6.72c.17,.6-.15,1-.29,1.15s-.55,.47-1.15,.29l-6.72-1.97c-.53-.16-1.08-.23-1.63-.23s-1.09,.08-1.63,.23l-6.72,1.97c-.6,.17-1-.15-1.15-.29s-.47-.55-.29-1.15l1.97-6.72c.31-1.06,.31-2.19,0-3.25Z"/></g></g></svg>